<?xml version="1.0" encoding="utf-8"?>
<!-- Generator: Adobe Illustrator 18.0.0, SVG Export Plug-In . SVG Version: 6.00 Build 0)  -->
<!DOCTYPE svg PUBLIC "-//W3C//DTD SVG 1.1//EN" "http://www.w3.org/Graphics/SVG/1.1/DTD/svg11.dtd">
<svg version="1.1" id="Icon_Set" xmlns="http://www.w3.org/2000/svg" xmlns:xlink="http://www.w3.org/1999/xlink" x="0px" y="0px"
	 viewBox="0 0 512 512" style="enable-background:new 0 0 512 512;" xml:space="preserve">
<style type="text/css">
	.st0{fill:#4C4372;}
	.st1{fill:#F0C48A;}
	.st2{fill:#FD919E;}
	.st3{fill:#E8677D;}
	.st4{fill:#D3E6F8;}
	.st5{fill:#A4CFF2;}
	.st6{fill:#7BABF1;}
	.st7{fill:#FFFFFF;}
</style>
<g>
	<g>
		<g>
			<g>
				<circle class="st1" cx="256" cy="256" r="207"/>
			</g>
		</g>
	</g>
	<g>
		<g>
			<g>
				<g>
					<path class="st2" d="M100.063,472.494H59.611V59.731c0-11.17,9.056-20.225,20.226-20.225l0,0
						c11.17,0,20.226,9.055,20.226,20.225V472.494z"/>
				</g>
			</g>
			<g>
				<g>
					<path class="st3" d="M452.389,472.494h-40.451V59.731c0-11.17,9.055-20.225,20.226-20.225l0,0
						c11.17,0,20.226,9.055,20.226,20.225V472.494z"/>
				</g>
			</g>
		</g>
		<g>
			<g>
				<g>
					<path class="st0" d="M100.063,478.357H59.612c-3.238,0-5.863-2.625-5.863-5.863V59.731c0-14.385,11.703-26.088,26.088-26.088
						c14.385,0,26.088,11.704,26.088,26.088v412.763C105.925,475.732,103.301,478.357,100.063,478.357z M65.474,466.632H94.2v-406.9
						c0-7.92-6.443-14.363-14.363-14.363c-7.919,0-14.363,6.443-14.363,14.363V466.632z"/>
				</g>
			</g>
			<g>
				<g>
					<path class="st0" d="M452.388,478.357h-40.451c-3.238,0-5.863-2.625-5.863-5.863V59.731c0-14.385,11.704-26.088,26.089-26.088
						c14.385,0,26.088,11.704,26.088,26.088v412.763C458.251,475.732,455.626,478.357,452.388,478.357z M417.8,466.632h28.726
						v-406.9c0-7.92-6.443-14.363-14.363-14.363c-7.92,0-14.363,6.443-14.363,14.363V466.632z"/>
				</g>
			</g>
		</g>
		<g>
			<g>
				<path class="st4" d="M490.792,188.829H21.208c-8.475,0-15.345-6.87-15.345-15.345V90.709c0-8.475,6.87-15.345,15.345-15.345
					h469.585c8.475,0,15.345,6.871,15.345,15.345v82.774C506.137,181.958,499.267,188.829,490.792,188.829z"/>
			</g>
		</g>
		<g>
			<g>
				<polygon class="st5" points="118.771,188.829 65.04,188.829 35.727,75.364 89.459,75.364 				"/>
			</g>
		</g>
		<g>
			<g>
				<polygon class="st5" points="237.939,188.829 184.207,188.829 154.894,75.364 208.626,75.364 				"/>
			</g>
		</g>
		<g>
			<g>
				<polygon class="st5" points="357.106,188.829 303.374,188.829 274.061,75.364 327.793,75.364 				"/>
			</g>
		</g>
		<g>
			<g>
				<polygon class="st5" points="476.273,188.829 422.542,188.829 393.228,75.364 446.96,75.364 				"/>
			</g>
		</g>
		<g>
			<g>
				<path class="st5" d="M490.792,390.982H21.208c-8.475,0-15.345-6.87-15.345-15.345v-82.775c0-8.475,6.87-15.345,15.345-15.345
					h469.585c8.475,0,15.345,6.87,15.345,15.345v82.775C506.137,384.112,499.267,390.982,490.792,390.982z"/>
			</g>
		</g>
		<g>
			<g>
				<polygon class="st6" points="118.771,390.982 65.04,390.982 35.727,277.518 89.459,277.518 				"/>
			</g>
		</g>
		<g>
			<g>
				<polygon class="st6" points="237.939,390.982 184.207,390.982 154.894,277.518 208.626,277.518 				"/>
			</g>
		</g>
		<g>
			<g>
				<polygon class="st6" points="357.106,390.982 303.374,390.982 274.061,277.518 327.793,277.518 				"/>
			</g>
		</g>
		<g>
			<g>
				<polygon class="st6" points="476.273,390.982 422.542,390.982 393.228,277.518 446.96,277.518 				"/>
			</g>
		</g>
		<g>
			<g>
				<path class="st0" d="M490.792,194.691H21.208C9.514,194.691,0,185.178,0,173.483V90.709c0-11.693,9.514-21.207,21.208-21.207
					h469.585c11.694,0,21.208,9.514,21.208,21.207v82.774C512,185.178,502.486,194.691,490.792,194.691z M21.208,81.227
					c-5.229,0-9.482,4.254-9.482,9.482v82.774c0,5.229,4.254,9.482,9.482,9.482h469.585c5.229,0,9.483-4.253,9.483-9.482V90.709
					c0-5.229-4.254-9.482-9.483-9.482H21.208z"/>
			</g>
		</g>
		<g>
			<g>
				<path class="st0" d="M490.792,396.845H21.208C9.514,396.845,0,387.331,0,375.638v-82.775c0-11.693,9.514-21.207,21.208-21.207
					h469.585c11.694,0,21.208,9.514,21.208,21.207v82.775C512,387.331,502.486,396.845,490.792,396.845z M21.208,283.38
					c-5.229,0-9.482,4.254-9.482,9.482v82.775c0,5.229,4.254,9.482,9.482,9.482h469.585c5.229,0,9.483-4.254,9.483-9.482v-82.775
					c0-5.229-4.254-9.482-9.483-9.482H21.208z"/>
			</g>
		</g>
		<g>
			<g>
				<path class="st0" d="M118.791,194.691c-0.007,0-0.013,0-0.019,0H65.04c-2.673,0-5.007-1.809-5.676-4.396L30.051,76.831
					c-0.454-1.755-0.069-3.623,1.041-5.056c1.11-1.434,2.821-2.273,4.635-2.273h53.732c2.673,0,5.008,1.808,5.676,4.396
					l29.192,112.995c0.212,0.606,0.328,1.258,0.328,1.936C124.654,192.066,122.029,194.691,118.791,194.691z M69.58,182.966h41.622
					L84.919,81.227H43.296L69.58,182.966z"/>
			</g>
		</g>
		<g>
			<g>
				<path class="st0" d="M237.958,194.691c-0.007,0-0.013,0-0.02,0h-53.732c-2.673,0-5.008-1.809-5.676-4.396L149.218,76.831
					c-0.454-1.755-0.069-3.623,1.042-5.056c1.11-1.434,2.821-2.273,4.635-2.273h53.732c2.673,0,5.008,1.808,5.676,4.396
					l29.191,112.995c0.212,0.606,0.328,1.258,0.328,1.936C243.821,192.066,241.196,194.691,237.958,194.691z M188.748,182.966
					h41.622L204.085,81.227h-41.621L188.748,182.966z"/>
			</g>
		</g>
		<g>
			<g>
				<path class="st0" d="M357.125,194.691c-0.005,0-0.012,0-0.019,0h-53.732c-2.673,0-5.008-1.809-5.677-4.396L268.384,76.831
					c-0.453-1.755-0.068-3.623,1.041-5.056c1.11-1.434,2.822-2.273,4.635-2.273h53.732c2.673,0,5.008,1.808,5.677,4.396
					l29.19,112.995c0.213,0.606,0.328,1.258,0.328,1.936C362.988,192.066,360.363,194.691,357.125,194.691z M307.914,182.966h41.622
					L323.253,81.227h-41.622L307.914,182.966z"/>
			</g>
		</g>
		<g>
			<g>
				<path class="st0" d="M476.292,194.691c-0.005,0-0.012,0-0.019,0h-53.732c-2.673,0-5.008-1.809-5.677-4.396L387.551,76.831
					c-0.453-1.755-0.068-3.623,1.042-5.056c1.11-1.434,2.822-2.273,4.635-2.273h53.732c2.673,0,5.008,1.808,5.676,4.396
					l29.191,112.995c0.213,0.606,0.328,1.258,0.328,1.936C482.155,192.066,479.53,194.691,476.292,194.691z M427.081,182.966h41.622
					L442.42,81.227h-41.622L427.081,182.966z"/>
			</g>
		</g>
		<g>
			<g>
				<path class="st0" d="M118.791,396.845c-0.007,0-0.013,0-0.019,0H65.04c-2.673,0-5.007-1.808-5.676-4.396L30.051,278.984
					c-0.454-1.756-0.069-3.623,1.041-5.056c1.11-1.434,2.821-2.273,4.635-2.273h53.732c2.673,0,5.008,1.808,5.676,4.396
					l29.192,112.995c0.212,0.606,0.328,1.257,0.328,1.936C124.654,394.22,122.029,396.845,118.791,396.845z M69.58,385.12h41.622
					L84.919,283.38H43.296L69.58,385.12z"/>
			</g>
		</g>
		<g>
			<g>
				<path class="st0" d="M237.958,396.845c-0.007,0-0.013,0-0.02,0h-53.732c-2.673,0-5.008-1.808-5.676-4.396l-29.314-113.465
					c-0.454-1.756-0.069-3.623,1.042-5.056c1.11-1.434,2.821-2.273,4.635-2.273h53.732c2.673,0,5.008,1.808,5.676,4.396
					l29.191,112.995c0.212,0.606,0.328,1.257,0.328,1.936C243.821,394.22,241.196,396.845,237.958,396.845z M188.748,385.12h41.622
					l-26.284-101.74h-41.621L188.748,385.12z"/>
			</g>
		</g>
		<g>
			<g>
				<path class="st0" d="M357.125,396.845c-0.005,0-0.012,0.001-0.019,0h-53.732c-2.673,0-5.008-1.808-5.677-4.396l-29.313-113.465
					c-0.453-1.756-0.068-3.623,1.041-5.056c1.11-1.434,2.822-2.273,4.635-2.273h53.732c2.673,0,5.008,1.808,5.677,4.396
					l29.19,112.995c0.213,0.606,0.328,1.257,0.328,1.936C362.988,394.22,360.363,396.845,357.125,396.845z M307.914,385.12h41.622
					l-26.283-101.74h-41.622L307.914,385.12z"/>
			</g>
		</g>
		<g>
			<g>
				<path class="st0" d="M476.292,396.845c-0.005,0-0.012,0.001-0.019,0h-53.732c-2.673,0-5.008-1.808-5.677-4.396l-29.313-113.465
					c-0.453-1.756-0.068-3.623,1.042-5.056c1.11-1.434,2.822-2.273,4.635-2.273h53.732c2.673,0,5.008,1.808,5.676,4.396
					l29.191,112.995c0.213,0.606,0.328,1.257,0.328,1.936C482.155,394.22,479.53,396.845,476.292,396.845z M427.081,385.12h41.622
					L442.42,283.38h-41.622L427.081,385.12z"/>
			</g>
		</g>
	</g>
</g>
</svg>
