<?xml version="1.0" encoding="utf-8"?>
<!-- Generator: Adobe Illustrator 19.2.1, SVG Export Plug-In . SVG Version: 6.00 Build 0)  -->
<svg version="1.1" xmlns="http://www.w3.org/2000/svg" xmlns:xlink="http://www.w3.org/1999/xlink" x="0px" y="0px"
	 viewBox="0 0 512 512" style="enable-background:new 0 0 512 512;" xml:space="preserve">
<style type="text/css">
	.st0{display:none;}
	.st1{fill:#75A897;}
	.st2{fill:#D5872A;}
	.st3{fill:#5082A9;}
	.st4{fill:#E09C6F;}
	.st5{fill:#E4C856;}
	.st6{fill:#87B7DD;}
	.st7{fill:#B9BDC2;}
	.st8{fill:#57646E;}
	.st9{fill:#CA6A46;}
	.st10{fill:#1F3049;}
	.st11{fill:#298063;}
	.st12{fill:#C93A3A;}
	.st13{fill:#DA8B80;}
	.st14{fill:#C9402E;}
	.st15{fill:#E29E6F;}
	.st16{fill:#A32929;}
	.st17{fill:#F5F5F5;}
	.st18{fill:#C9553E;}
	.st19{fill:#E09E9A;}
	.st20{fill:#FFFFFF;}
	.st21{fill:#E6A585;}
	.st22{fill:#4E3333;}
	.st23{fill:#2B5F87;}
	.st24{opacity:0.31;fill:#FFFFFF;}
	.st25{fill:#E6CA56;}
	.st26{fill:#4D917B;}
	.st27{fill:#B8B8B8;}
	.st28{fill:#8998A0;}
	.st29{fill:#394755;}
	.st30{fill:#F2D1B4;}
	.st31{fill:#ECE4C7;}
	.st32{fill:#F1CB58;}
	.st33{fill:#E1E1E1;}
</style>
<g id="GUIDELINES" class="st0">
</g>
<g id="Layer_9">
</g>
<g id="ICON">
	<ellipse class="st8" cx="256.4" cy="255.7" rx="256" ry="256"/>
</g>
<g id="Layer_8">
	<g>
		<g>
			<polygon class="st26" points="301.4,331.6 108,331.6 204.7,150.9 			"/>
			<polygon class="st26" points="233.8,141.9 175.6,141.9 204.7,87.5 			"/>
			<polygon class="st26" points="262.1,215.8 147.4,215.8 204.7,108.6 			"/>
			<g>
				<g>
					<path class="st15" d="M207.7,387.5V117.7c0-4.9-7.6-4.9-7.6,0v269.8H207.7z"/>
				</g>
				<g>
					<g>
						<line class="st15" x1="203.1" y1="299.8" x2="170.3" y2="262.9"/>
						<g>
							<path class="st15" d="M204.6,298.2c-10.9-12.3-21.9-24.6-32.8-36.9c-1.9-2.1-4.9,1-3.1,3.1c10.9,12.3,21.9,24.6,32.8,36.9
								C203.4,303.4,206.5,300.3,204.6,298.2L204.6,298.2z"/>
						</g>
					</g>
					<g>
						<line class="st15" x1="206.5" y1="325.7" x2="249.3" y2="282.9"/>
						<g>
							<path class="st15" d="M208.1,327.2c14.3-14.2,28.5-28.5,42.8-42.7c2-2-1.1-5.1-3.1-3.1c-14.3,14.2-28.5,28.5-42.8,42.7
								C203,326.1,206.1,329.2,208.1,327.2L208.1,327.2z"/>
						</g>
					</g>
				</g>
				<g>
					<g>
						<line class="st15" x1="203.3" y1="235.1" x2="178.7" y2="210.5"/>
						<g>
							<path class="st15" d="M204.9,233.5c-8.2-8.2-16.4-16.4-24.6-24.6c-2-2-5.1,1.1-3.1,3.1c8.2,8.2,16.4,16.4,24.6,24.6
								C203.8,238.6,206.8,235.5,204.9,233.5L204.9,233.5z"/>
						</g>
					</g>
					<g>
						<line class="st15" x1="206.1" y1="202.8" x2="223.3" y2="185"/>
						<g>
							<path class="st15" d="M207.7,204.4c5.7-6,11.5-11.9,17.2-17.8c1.9-2-1.1-5.1-3.1-3.1c-5.7,5.9-11.5,11.9-17.2,17.8
								C202.6,203.3,205.7,206.4,207.7,204.4L207.7,204.4z"/>
						</g>
					</g>
				</g>
				<g>
					<g>
						<line class="st15" x1="204" y1="146.9" x2="191.5" y2="135.1"/>
						<g>
							<path class="st15" d="M205.5,145.5c-4.2-3.9-8.3-7.8-12.5-11.8c-2-1.9-5.1,1-3.1,2.9c4.2,3.9,8.3,7.8,12.5,11.8
								C204.4,150.2,207.5,147.3,205.5,145.5L205.5,145.5z"/>
						</g>
					</g>
				</g>
			</g>
		</g>
		<g>
			<polygon class="st1" points="403.9,332.3 254,332.3 328.9,225.5 			"/>
			<polygon class="st1" points="372.6,260.4 285.3,260.4 328.9,199.8 			"/>
			<g>
				<g>
					<path class="st10" d="M329.8,225.5c0.2,54,0.2,109,0,163"/>
					<g>
						<path class="st10" d="M332.8,392V225.5c0-3.9-6-3.9-6,0V392H332.8z"/>
					</g>
				</g>
				<g>
					<g>
						<line class="st10" x1="327.7" y1="332.1" x2="305.9" y2="316"/>
						<g>
							<path class="st10" d="M329.2,329.5c-7.3-5.4-14.5-10.7-21.8-16.1c-3.1-2.3-6.1,2.9-3,5.2c7.3,5.4,14.5,10.7,21.8,16.1
								C329.3,337,332.3,331.8,329.2,329.5L329.2,329.5z"/>
						</g>
					</g>
					<g>
						<line class="st10" x1="330.2" y1="311" x2="352" y2="294.9"/>
						<g>
							<path class="st10" d="M331.7,313.6c7.3-5.4,14.5-10.7,21.8-16.1c3.1-2.3,0.1-7.5-3-5.2c-7.3,5.4-14.5,10.7-21.8,16.1
								C325.6,310.7,328.6,315.9,331.7,313.6L331.7,313.6z"/>
						</g>
					</g>
				</g>
				<g>
					<g>
						<line class="st10" x1="328.9" y1="279.4" x2="314.6" y2="263.3"/>
						<g>
							<path class="st10" d="M331,277.3c-4.8-5.4-9.5-10.7-14.3-16.1c-2.6-2.9-6.8,1.4-4.2,4.2c4.8,5.4,9.5,10.7,14.3,16.1
								C329.3,284.4,333.5,280.2,331,277.3L331,277.3z"/>
						</g>
					</g>
					<g>
						<line class="st10" x1="330.5" y1="258.3" x2="344.8" y2="242.1"/>
						<g>
							<path class="st10" d="M332.6,260.4c4.8-5.4,9.5-10.7,14.3-16.1c2.6-2.9-1.7-7.1-4.2-4.2c-4.8,5.4-9.5,10.7-14.3,16.1
								C325.8,259,330,263.3,332.6,260.4L332.6,260.4z"/>
						</g>
					</g>
				</g>
			</g>
		</g>
	</g>
</g>
</svg>
